<?xml version="1.0" encoding="UTF-8" standalone="no"?>
<svg
   xmlns:dc="http://purl.org/dc/elements/1.1/"
   xmlns:cc="http://creativecommons.org/ns#"
   xmlns:rdf="http://www.w3.org/1999/02/22-rdf-syntax-ns#"
   xmlns:svg="http://www.w3.org/2000/svg"
   xmlns="http://www.w3.org/2000/svg"
   xmlns:sodipodi="http://sodipodi.sourceforge.net/DTD/sodipodi-0.dtd"
   xmlns:inkscape="http://www.inkscape.org/namespaces/inkscape"
   enable-background="new 0 0 32 32"
   height="32px"
   id="Layer_1"
   version="1.0"
   viewBox="0 0 32 32"
   width="32px"
   xml:space="preserve"
   sodipodi:docname="linkedin.svg"
   inkscape:version="1.0.2-2 (e86c870879, 2021-01-15)"><metadata
     id="metadata912"><rdf:RDF><cc:Work
         rdf:about=""><dc:format>image/svg+xml</dc:format><dc:type
           rdf:resource="http://purl.org/dc/dcmitype/StillImage" /></cc:Work></rdf:RDF></metadata><defs
     id="defs910" /><sodipodi:namedview
     pagecolor="#ffffff"
     bordercolor="#666666"
     borderopacity="1"
     objecttolerance="10"
     gridtolerance="10"
     guidetolerance="10"
     inkscape:pageopacity="0"
     inkscape:pageshadow="2"
     inkscape:window-width="1147"
     inkscape:window-height="745"
     id="namedview908"
     showgrid="false"
     inkscape:zoom="6.3860581"
     inkscape:cx="16"
     inkscape:cy="16"
     inkscape:window-x="211"
     inkscape:window-y="-8"
     inkscape:window-maximized="1"
     inkscape:current-layer="Layer_1" /><g
     id="g893"
     transform="matrix(0.77979374,0,0,0.77979374,3.7304809,2.7909345)"><rect
       fill="#007bb5"
       height="23"
       width="7"
       y="9"
       id="rect887"
       x="0" /><path
       d="M 24.003,9 C 20,9 18.89,10.312 18,12 V 9 h -7 v 23 h 7 V 19 c 0,-2 0,-4 3.5,-4 3.5,0 3.5,2 3.5,4 v 13 h 7 V 19 C 32,13 31,9 24.003,9 Z"
       fill="#007bb5"
       id="path889" /><circle
       cx="3.5"
       cy="3.5"
       fill="#007bb5"
       r="3.5"
       id="circle891" /></g><g
     id="g895"
     transform="matrix(0.77979374,0,0,0.77979374,3.7304809,2.7909345)" /><g
     id="g897"
     transform="matrix(0.77979374,0,0,0.77979374,3.7304809,2.7909345)" /><g
     id="g899"
     transform="matrix(0.77979374,0,0,0.77979374,3.7304809,2.7909345)" /><g
     id="g901"
     transform="matrix(0.77979374,0,0,0.77979374,3.7304809,2.7909345)" /><g
     id="g903"
     transform="matrix(0.77979374,0,0,0.77979374,3.7304809,2.7909345)" /><g
     id="g905"
     transform="matrix(0.77979374,0,0,0.77979374,3.7304809,2.7909345)" /></svg>
