<?xml version="1.0" encoding="UTF-8" standalone="no"?>
<svg
   xmlns:dc="http://purl.org/dc/elements/1.1/"
   xmlns:cc="http://creativecommons.org/ns#"
   xmlns:rdf="http://www.w3.org/1999/02/22-rdf-syntax-ns#"
   xmlns:svg="http://www.w3.org/2000/svg"
   xmlns="http://www.w3.org/2000/svg"
   xmlns:sodipodi="http://sodipodi.sourceforge.net/DTD/sodipodi-0.dtd"
   xmlns:inkscape="http://www.inkscape.org/namespaces/inkscape"
   enable-background="new 0 0 32 32"
   height="32px"
   id="Layer_1"
   version="1.0"
   viewBox="0 0 32 32"
   width="32px"
   xml:space="preserve"
   sodipodi:docname="pinterest.svg"
   inkscape:version="1.0.2-2 (e86c870879, 2021-01-15)"><metadata
     id="metadata1046"><rdf:RDF><cc:Work
         rdf:about=""><dc:format>image/svg+xml</dc:format><dc:type
           rdf:resource="http://purl.org/dc/dcmitype/StillImage" /></cc:Work></rdf:RDF></metadata><defs
     id="defs1044" /><sodipodi:namedview
     pagecolor="#ffffff"
     bordercolor="#666666"
     borderopacity="1"
     objecttolerance="10"
     gridtolerance="10"
     guidetolerance="10"
     inkscape:pageopacity="0"
     inkscape:pageshadow="2"
     inkscape:window-width="1147"
     inkscape:window-height="745"
     id="namedview1042"
     showgrid="false"
     inkscape:zoom="6.3860581"
     inkscape:cx="16"
     inkscape:cy="16"
     inkscape:window-x="211"
     inkscape:window-y="-8"
     inkscape:window-maximized="1"
     inkscape:current-layer="Layer_1" /><path
     d="m 15.972863,2.1680701 c -7.6233254,0 -13.803793,6.1796047 -13.803793,13.8046559 0,5.653204 3.3983078,10.508176 8.262773,12.642258 -0.03883,-0.964781 -0.0069,-2.122001 0.239901,-3.168762 0.265789,-1.122702 1.775957,-7.524086 1.775957,-7.524086 0,0 -0.441832,-0.881075 -0.441832,-2.182407 0,-2.044336 1.187423,-3.572625 2.663935,-3.572625 1.254733,0 1.861389,0.941481 1.861389,2.071087 0,1.261637 -0.805998,3.149777 -1.218489,4.89812 -0.346044,1.463568 0.735236,2.657894 2.176367,2.657894 2.61561,0 4.376896,-3.357749 4.376896,-7.33855 0,-3.02465 -2.037431,-5.2881751 -5.74295,-5.2881751 -4.187047,0 -6.7948909,3.1213001 -6.7948909,6.6093561 0,1.202956 0.3546736,2.051238 0.9095519,2.707945 0.256297,0.302034 0.291678,0.421984 0.197617,0.768891 -0.06386,0.255434 -0.215739,0.865542 -0.279597,1.107169 -0.09234,0.351222 -0.3745217,0.475487 -0.6912254,0.345181 -1.9286995,-0.785287 -2.8261704,-2.897796 -2.8261704,-5.272642 0,-3.920394 3.3059722,-8.6234871 9.8661398,-8.6234871 5.269189,0 8.739986,3.8142511 8.739986,7.9080991 0,5.415029 -3.012569,9.460552 -7.449872,9.460552 -1.491182,0 -2.893481,-0.805998 -3.371556,-1.719002 0,0 -0.802546,3.180844 -0.970822,3.79354 -0.293404,1.062295 -0.866405,2.128042 -1.389354,2.95734 1.2392,0.366755 2.550888,0.566097 3.910039,0.566097 7.623325,0 13.80293,-6.178742 13.80293,-13.803793 0,-7.6250512 -6.179605,-13.8046559 -13.80293,-13.8046559 z"
     fill="#ca2028"
     id="path1027"
     style="stroke-width:0.862953" /><g
     id="g1029"
     transform="matrix(0.86295279,0,0,0.86295279,2.16907,2.1620294)" /><g
     id="g1031"
     transform="matrix(0.86295279,0,0,0.86295279,2.16907,2.1620294)" /><g
     id="g1033"
     transform="matrix(0.86295279,0,0,0.86295279,2.16907,2.1620294)" /><g
     id="g1035"
     transform="matrix(0.86295279,0,0,0.86295279,2.16907,2.1620294)" /><g
     id="g1037"
     transform="matrix(0.86295279,0,0,0.86295279,2.16907,2.1620294)" /><g
     id="g1039"
     transform="matrix(0.86295279,0,0,0.86295279,2.16907,2.1620294)" /></svg>
