<?xml version="1.0" encoding="UTF-8" standalone="no"?>
<svg
   xmlns:dc="http://purl.org/dc/elements/1.1/"
   xmlns:cc="http://creativecommons.org/ns#"
   xmlns:rdf="http://www.w3.org/1999/02/22-rdf-syntax-ns#"
   xmlns:svg="http://www.w3.org/2000/svg"
   xmlns="http://www.w3.org/2000/svg"
   xmlns:sodipodi="http://sodipodi.sourceforge.net/DTD/sodipodi-0.dtd"
   xmlns:inkscape="http://www.inkscape.org/namespaces/inkscape"
   height="100%"
   style="fill-rule:evenodd;clip-rule:evenodd;stroke-linejoin:round;stroke-miterlimit:2;"
   version="1.1"
   viewBox="0 0 512 512"
   width="100%"
   xml:space="preserve"
   id="svg26"
   sodipodi:docname="twitter.svg"
   inkscape:version="1.0.2-2 (e86c870879, 2021-01-15)"><metadata
     id="metadata32"><rdf:RDF><cc:Work
         rdf:about=""><dc:format>image/svg+xml</dc:format><dc:type
           rdf:resource="http://purl.org/dc/dcmitype/StillImage" /><dc:title></dc:title></cc:Work></rdf:RDF></metadata><defs
     id="defs30" /><sodipodi:namedview
     pagecolor="#ffffff"
     bordercolor="#666666"
     borderopacity="1"
     objecttolerance="10"
     gridtolerance="10"
     guidetolerance="10"
     inkscape:pageopacity="0"
     inkscape:pageshadow="2"
     inkscape:window-width="1147"
     inkscape:window-height="745"
     id="namedview28"
     showgrid="false"
     inkscape:zoom="0.26318359"
     inkscape:cx="256"
     inkscape:cy="256"
     inkscape:window-x="211"
     inkscape:window-y="-8"
     inkscape:window-maximized="1"
     inkscape:current-layer="svg26" /><rect
     height="345.20108"
     style="clip-rule:evenodd;fill:none;fill-rule:evenodd;stroke-width:0.863003;stroke-linejoin:round;stroke-miterlimit:2"
     width="345.20108"
     x="88.699211"
     y="91.473671"
     id="rect22" /><path
     d="m 179.32657,443.58999 c 166.73903,0 257.93856,-138.1417 257.93856,-257.93857 0,-3.92321 0,-7.82916 -0.26494,-11.71785 17.74161,-12.83371 33.05732,-28.72246 45.22825,-46.92491 -16.54463,7.33121 -34.09724,12.13813 -52.06841,14.26285 18.92047,-11.32604 33.09012,-29.15395 39.85519,-50.142178 C 452.22097,101.68817 432.75077,109.1307 412.45035,113.13417 395.30939,94.906694 371.3697,84.558429 346.35039,84.558429 c -49.77973,0 -90.74042,40.961561 -90.74042,90.739551 0,6.90575 0.78878,13.78992 2.34909,20.51616 C 185.1061,192.16278 117.13428,157.70308 71.12416,101.09788 47.198272,142.28553 59.578046,195.66225 99.190734,222.11329 84.765643,221.6861 70.650371,217.79396 58.045353,210.76653 v 1.14865 c 0.01208,42.98962 30.590858,80.35505 72.729547,88.86684 -13.34547,3.63929 -27.35114,4.1709 -40.933075,1.55513 11.846435,36.83728 46.007535,62.2294 84.695075,62.95605 -32.09507,25.22299 -71.76471,38.92401 -112.585596,38.88346 -7.212977,-0.0138 -14.41905,-0.45049 -21.580246,-1.30831 41.453472,26.60205 89.700492,40.71647 138.955512,40.65087"
     style="clip-rule:evenodd;fill:#1da1f2;fill-rule:nonzero;stroke-width:0.863003;stroke-linejoin:round;stroke-miterlimit:2"
     id="path24" /></svg>
