<?xml version="1.0" encoding="UTF-8" standalone="no"?>
<svg
   xmlns:dc="http://purl.org/dc/elements/1.1/"
   xmlns:cc="http://creativecommons.org/ns#"
   xmlns:rdf="http://www.w3.org/1999/02/22-rdf-syntax-ns#"
   xmlns:svg="http://www.w3.org/2000/svg"
   xmlns="http://www.w3.org/2000/svg"
   xmlns:sodipodi="http://sodipodi.sourceforge.net/DTD/sodipodi-0.dtd"
   xmlns:inkscape="http://www.inkscape.org/namespaces/inkscape"
   enable-background="new 0 0 24 24"
   id="Layer_1"
   version="1.1"
   viewBox="0 0 36 36"
   xml:space="preserve"
   sodipodi:docname="twitch.svg"
   width="36"
   height="36"
   inkscape:version="1.0.2-2 (e86c870879, 2021-01-15)"><metadata
     id="metadata152"><rdf:RDF><cc:Work
         rdf:about=""><dc:format>image/svg+xml</dc:format><dc:type
           rdf:resource="http://purl.org/dc/dcmitype/StillImage" /><dc:title></dc:title></cc:Work></rdf:RDF></metadata><defs
     id="defs150"><linearGradient
       gradientUnits="userSpaceOnUse"
       id="SVGID_1_"
       x1="-0.2388332"
       x2="23.429398"
       y1="4.8940153"
       y2="15.930693"><stop
         offset="0"
         style="stop-color:#FFFFFF;stop-opacity:0.2"
         id="stop108" /><stop
         offset="1"
         style="stop-color:#FFFFFF;stop-opacity:0"
         id="stop110" /></linearGradient></defs><sodipodi:namedview
     pagecolor="#ffffff"
     bordercolor="#666666"
     borderopacity="1"
     objecttolerance="10"
     gridtolerance="10"
     guidetolerance="10"
     inkscape:pageopacity="0"
     inkscape:pageshadow="2"
     inkscape:window-width="1147"
     inkscape:window-height="745"
     id="namedview148"
     showgrid="true"
     inkscape:zoom="8.5147442"
     inkscape:cx="12"
     inkscape:cy="12"
     inkscape:window-x="211"
     inkscape:window-y="-8"
     inkscape:window-maximized="1"
     inkscape:current-layer="Layer_1" /><g
     id="g115"
     transform="matrix(1.1370172,0,0,1.176165,4.6769544,3.7374076)"><path
       d="M 2.1914063,0 0,4.3818359 V 21 h 6 v 3 h 2.7070313 l 2.9999997,-3 h 6 L 24,14.707031 V 0 Z M 22,13.707031 17.707031,18 h -6 L 8,21.707031 V 18 H 3 V 2 h 19 z"
       fill="#82469b"
       id="path94" /><polygon
       fill="#ffffff"
       opacity="0.2"
       points="2.1914063,0.25 24,0.25 24,0 2.1914063,0 0,4.3818359 0,4.6318359 "
       id="polygon96" /><rect
       fill="#010101"
       height="0.25"
       opacity="0.1"
       width="6"
       y="20.75"
       id="rect98"
       x="0" /><polygon
       fill="#010101"
       opacity="0.1"
       points="17.707031,20.75 11.707031,20.75 8.7070313,23.75 6,23.75 6,24 8.7070313,24 11.707031,21 17.707031,21 24,14.707031 24,14.457031 "
       id="polygon100" /><g
       id="XMLID_1401_"><path
         d="M 9.5,13 C 9.2236328,13 9,12.776367 9,12.5 v -6 C 9,6.2236328 9.2236328,6 9.5,6 9.7763672,6 10,6.2236328 10,6.5 v 6 C 10,12.776367 9.7763672,13 9.5,13 Z"
         fill="#82469b"
         id="path102" /></g><g
       id="XMLID_1400_"><path
         d="M 15.5,13 C 15.223633,13 15,12.776367 15,12.5 v -6 C 15,6.2236328 15.223633,6 15.5,6 15.776367,6 16,6.2236328 16,6.5 v 6 c 0,0.276367 -0.223633,0.5 -0.5,0.5 z"
         fill="#82469b"
         id="path105" /></g><linearGradient
       gradientUnits="userSpaceOnUse"
       id="linearGradient253"
       x1="-0.2388332"
       x2="23.429398"
       y1="4.8940153"
       y2="15.930693"><stop
         offset="0"
         style="stop-color:#FFFFFF;stop-opacity:0.2"
         id="stop249" /><stop
         offset="1"
         style="stop-color:#FFFFFF;stop-opacity:0"
         id="stop251" /></linearGradient><path
       d="M 2.1914063,0 0,4.3818359 V 21 h 6 v 3 h 2.7070313 l 2.9999997,-3 h 6 L 24,14.707031 V 0 Z M 22,13.707031 17.707031,18 h -6 L 8,21.707031 V 18 H 3 V 2 H 22 Z M 9.5,13 C 9.7763672,13 10,12.776367 10,12.5 v -6 C 10,6.2236328 9.7763672,6 9.5,6 9.2236328,6 9,6.2236328 9,6.5 v 6 C 9,12.776367 9.2236328,13 9.5,13 Z m 6,0 c 0.276367,0 0.5,-0.223633 0.5,-0.5 v -6 C 16,6.2236328 15.776367,6 15.5,6 15.223633,6 15,6.2236328 15,6.5 v 6 c 0,0.276367 0.223633,0.5 0.5,0.5 z"
       fill="url(#SVGID_1_)"
       id="path113"
       style="fill:url(#SVGID_1_)" /></g><g
     id="g117"
     transform="matrix(1.1370172,0,0,1.176165,4.6769544,3.7374076)" /><g
     id="g119"
     transform="matrix(1.1370172,0,0,1.176165,4.6769544,3.7374076)" /><g
     id="g121"
     transform="matrix(1.1370172,0,0,1.176165,4.6769544,3.7374076)" /><g
     id="g123"
     transform="matrix(1.1370172,0,0,1.176165,4.6769544,3.7374076)" /><g
     id="g125"
     transform="matrix(1.1370172,0,0,1.176165,4.6769544,3.7374076)" /><g
     id="g127"
     transform="matrix(1.1370172,0,0,1.176165,4.6769544,3.7374076)" /><g
     id="g129"
     transform="matrix(1.1370172,0,0,1.176165,4.6769544,3.7374076)" /><g
     id="g131"
     transform="matrix(1.1370172,0,0,1.176165,4.6769544,3.7374076)" /><g
     id="g133"
     transform="matrix(1.1370172,0,0,1.176165,4.6769544,3.7374076)" /><g
     id="g135"
     transform="matrix(1.1370172,0,0,1.176165,4.6769544,3.7374076)" /><g
     id="g137"
     transform="matrix(1.1370172,0,0,1.176165,4.6769544,3.7374076)" /><g
     id="g139"
     transform="matrix(1.1370172,0,0,1.176165,4.6769544,3.7374076)" /><g
     id="g141"
     transform="matrix(1.1370172,0,0,1.176165,4.6769544,3.7374076)" /><g
     id="g143"
     transform="matrix(1.1370172,0,0,1.176165,4.6769544,3.7374076)" /><g
     id="g145"
     transform="matrix(1.1370172,0,0,1.176165,4.6769544,3.7374076)" /></svg>
